<?xml version="1.0" standalone="no"?>
<!DOCTYPE svg PUBLIC "-//W3C//DTD SVG 20010904//EN"
 "http://www.w3.org/TR/2001/REC-SVG-20010904/DTD/svg10.dtd">
<svg version="1.0" xmlns="http://www.w3.org/2000/svg"
 width="700.000000pt" height="700.000000pt" viewBox="0 0 700.000000 700.000000"
 preserveAspectRatio="xMidYMid meet">
<metadata>
Created by potrace 1.11, written by Peter Selinger 2001-2013
</metadata>
<g transform="translate(0.000000,700.000000) scale(0.100000,-0.100000)"
fill="#000000" stroke="none">
<path d="M1670 5930 l0 -430 120 0 120 0 0 -230 0 -230 -758 -2 -757 -3 -67
-33 c-81 -40 -148 -110 -180 -190 l-23 -57 -3 -1565 -3 -1565 -39 -17 c-42
-17 -80 -68 -80 -106 0 -37 28 -86 59 -105 25 -14 58 -17 223 -17 l193 0 23
-87 c80 -315 332 -561 644 -630 108 -23 292 -21 393 6 296 78 529 304 610 589
15 53 29 103 31 110 3 10 270 12 1310 10 l1307 -3 23 -85 c41 -156 99 -261
209 -378 268 -287 698 -351 1044 -155 200 114 355 322 407 545 l18 78 209 0
c179 0 213 2 238 17 31 19 59 68 59 105 0 38 -38 89 -80 106 l-40 17 0 892 0
893 -637 2 -638 3 -3 557 -2 558 637 2 638 3 3 100 c6 185 -29 289 -118 350
-71 50 -99 54 -327 55 l-213 0 0 135 0 135 -29 32 -29 33 -247 0 -247 0 -29
-33 -29 -32 0 -135 0 -135 -1160 0 -1160 0 2 233 3 232 133 3 132 3 0 49 c0
48 1 50 28 50 15 -1 299 -23 632 -49 333 -27 608 -46 612 -42 4 3 4 191 1 417
l-6 412 -36 -4 c-52 -6 -1186 -94 -1210 -94 -17 0 -20 8 -23 53 l-3 52 -942 3
-943 2 0 -430z m1790 -1960 l0 -560 -1385 0 -1385 0 0 560 0 560 1385 0 1385
0 0 -560z m1720 0 l0 -560 -380 0 -380 0 0 560 0 560 380 0 380 0 0 -560z
m1470 -1270 l0 -300 -150 0 -150 0 0 300 0 300 150 0 150 0 0 -300z m-5156
-859 c76 -37 147 -110 184 -189 23 -49 27 -70 27 -152 0 -87 -3 -101 -32 -161
-40 -81 -107 -150 -181 -186 -51 -25 -67 -28 -162 -28 -93 0 -112 3 -162 27
-236 110 -295 429 -113 611 85 85 172 119 293 113 68 -3 95 -10 146 -35z
m4308 7 c82 -39 142 -98 185 -185 34 -69 37 -82 37 -162 0 -65 -6 -100 -23
-144 -30 -75 -111 -163 -187 -202 -55 -28 -67 -30 -164 -30 -93 0 -112 3 -162
27 -229 107 -295 389 -137 590 37 46 120 101 184 122 73 23 197 16 267 -16z"/>
<path d="M6070 6274 c-232 -28 -434 -89 -684 -207 l-108 -51 88 -13 c206 -29
440 -100 608 -185 122 -61 180 -98 310 -196 123 -94 183 -117 290 -110 41 3
91 14 119 26 65 29 148 110 182 179 26 51 29 69 30 148 0 76 -4 99 -26 145
-62 134 -173 201 -403 245 -79 16 -335 27 -406 19z"/>
</g>
</svg>
