<?xml version="1.0" encoding="iso-8859-1"?>
<!-- Generator: Adobe Illustrator 19.0.0, SVG Export Plug-In . SVG Version: 6.00 Build 0)  -->
<svg version="1.1" id="Capa_1" xmlns="http://www.w3.org/2000/svg" xmlns:xlink="http://www.w3.org/1999/xlink" x="0px" y="0px"
	 viewBox="0 0 512 512" style="enable-background:new 0 0 512 512;" xml:space="preserve">
<polygon style="fill:#FF525D;" points="271.002,104.439 220.423,104.439 214.593,166.676 276.832,166.676 "/>
<polygon style="fill:#EF4152;" points="220.423,104.439 214.593,166.676 236.761,166.676 242.591,104.439 "/>
<g>
	<path style="fill:#FF6E7C;" d="M245.962,71.074c-3.79,0-6.862-3.072-6.862-6.862V38.631c0-3.79,3.072-6.862,6.862-6.862
		s6.862,3.072,6.862,6.862v25.58C252.824,68,249.751,71.074,245.962,71.074z"/>
	<path style="fill:#FF6E7C;" d="M291.784,90.26c-1.757,0-3.512-0.669-4.853-2.01c-2.679-2.68-2.679-7.024,0.001-9.704l18.089-18.088
		c2.679-2.68,7.024-2.679,9.704,0c2.679,2.68,2.679,7.024-0.001,9.704L296.635,88.25C295.297,89.59,293.541,90.26,291.784,90.26z"/>
	<path style="fill:#FF6E7C;" d="M199.994,89.907c-1.757,0-3.512-0.669-4.853-2.01l-18.088-18.088
		c-2.679-2.68-2.679-7.024,0.001-9.704c2.679-2.68,7.024-2.68,9.704,0l18.088,18.088c2.679,2.68,2.679,7.024-0.001,9.704
		C203.506,89.237,201.749,89.907,199.994,89.907z"/>
	<path style="fill:#FF6E7C;" d="M336.199,136.228h-25.58c-3.79,0-6.862-3.072-6.862-6.862s3.072-6.862,6.862-6.862h25.58
		c3.79,0,6.862,3.072,6.862,6.862S339.989,136.228,336.199,136.228z"/>
	<path style="fill:#FF6E7C;" d="M180.807,135.729h-25.58c-3.79,0-6.862-3.072-6.862-6.862c0-3.79,3.072-6.862,6.862-6.862h25.58
		c3.79,0,6.862,3.072,6.862,6.862C187.669,132.657,184.597,135.729,180.807,135.729z"/>
</g>
<path style="fill:#34ABE0;" d="M509.554,346.787l-4.402,24.692l-10.916,61.166H12.756V332.155c0-20.174,16.342-36.516,36.516-36.526
	h338.152l87.452,6.482c18.886,1.404,33.296,16.247,35.08,34.13C510.314,339.661,510.198,343.208,509.554,346.787z"/>
<path style="fill:#279FC9;" d="M332.011,432.645H12.756V332.156c0-20.174,16.342-36.516,36.516-36.526
	C49.271,295.629,112.432,432.645,332.011,432.645z"/>
<polygon style="fill:#F9EED7;" points="387.424,295.629 84.985,295.629 127.211,166.679 338.345,166.679 354.138,208.167 "/>
<polygon style="fill:#FCF8F2;" points="264.48,166.679 167.432,295.629 139.985,295.629 237.033,166.679 "/>
<g>
	<path style="fill:#FFD15C;" d="M509.554,346.787l-4.402,24.692h-37.286c-4.867,0-9.269-1.974-12.457-5.162
		c-3.188-3.188-5.162-7.59-5.162-12.457c0-9.733,7.886-17.619,17.619-17.619h42.09C510.314,339.661,510.198,343.208,509.554,346.787
		z"/>
	<path style="fill:#FFD15C;" d="M12.745,336.238h12.974c9.733,0,17.619,7.886,17.619,17.619c0,4.867-1.974,9.269-5.162,12.457
		c-3.188,3.188-7.59,5.162-12.457,5.162H12.745"/>
</g>
<polygon style="fill:#FCF8F2;" points="354.138,208.167 288.307,295.629 214.938,295.629 311.985,166.679 338.345,166.679 "/>
<path style="fill:#34ABE0;" d="M394.822,292.817L345.746,163.86c-1.169-3.072-4.113-5.102-7.4-5.102H127.211
	c-3.424,0-6.459,2.2-7.525,5.454L77.46,293.166c-1.361,4.156,0.905,8.627,5.061,9.988c4.159,1.364,8.629-0.905,9.989-5.06
	l40.441-123.502h14.36v121.04c0,4.373,3.544,7.918,7.918,7.918c4.374,0,7.918-3.545,7.918-7.918V174.594h82.048v121.04
	c0,4.373,3.544,7.918,7.918,7.918s7.918-3.545,7.918-7.918v-121.04h71.859l47.135,123.855c1.203,3.161,4.21,5.103,7.401,5.103
	c0.936,0,1.889-0.167,2.815-0.519C394.324,301.478,396.377,296.904,394.822,292.817z"/>
<g>
	<path style="fill:#E8DBC4;" d="M504.082,412.001H475.02c-4.374,0-7.918-3.545-7.918-7.918s3.544-7.918,7.918-7.918h29.063
		c4.374,0,7.918,3.545,7.918,7.918S508.456,412.001,504.082,412.001z"/>
	<path style="fill:#E8DBC4;" d="M36.979,412.001H7.918c-4.374,0-7.918-3.545-7.918-7.918s3.544-7.918,7.918-7.918h29.062
		c4.374,0,7.918,3.545,7.918,7.918S41.353,412.001,36.979,412.001z"/>
</g>
<polygon style="fill:#FFD15C;" points="254.464,319.577 270.017,345.35 299.336,352.178 279.63,374.934 282.196,404.928 
	254.464,393.219 226.732,404.928 229.298,374.934 209.593,352.178 238.911,345.35 "/>
<g>
	<path style="fill:#5C5E70;" d="M149.463,432.645c0.072-1.095,0.107-2.202,0.107-3.308c0-28.102-22.781-50.884-50.884-50.884
		c-28.115,0-50.896,22.781-50.896,50.884c0,1.107,0.036,2.214,0.107,3.308c1.702,26.567,23.781,47.586,50.788,47.586
		C125.681,480.232,147.761,459.212,149.463,432.645z"/>
	<path style="fill:#5C5E70;" d="M461.027,432.645c0.072-1.095,0.107-2.202,0.107-3.308c0-28.102-22.781-50.884-50.884-50.884
		c-28.115,0-50.896,22.781-50.896,50.884c0,1.107,0.036,2.214,0.107,3.308c1.702,26.567,23.781,47.586,50.788,47.586
		C437.246,480.232,459.325,459.212,461.027,432.645z"/>
</g>
<g>
	<path style="fill:#F9EED7;" d="M98.682,450.217c-11.511,0-20.876-9.365-20.876-20.877c0-11.511,9.365-20.876,20.876-20.876
		s20.877,9.365,20.877,20.876C119.558,440.853,110.193,450.217,98.682,450.217z"/>
	<path style="fill:#F9EED7;" d="M410.247,450.217c-11.512,0-20.877-9.365-20.877-20.877c0-11.511,9.365-20.876,20.877-20.876
		c11.511,0,20.875,9.365,20.875,20.876C431.122,440.853,421.757,450.217,410.247,450.217z"/>
</g>
<g>
</g>
<g>
</g>
<g>
</g>
<g>
</g>
<g>
</g>
<g>
</g>
<g>
</g>
<g>
</g>
<g>
</g>
<g>
</g>
<g>
</g>
<g>
</g>
<g>
</g>
<g>
</g>
<g>
</g>
</svg>
