<?xml version="1.0" encoding="iso-8859-1"?>
<!-- Generator: Adobe Illustrator 19.0.0, SVG Export Plug-In . SVG Version: 6.00 Build 0)  -->
<svg version="1.1" id="Layer_1" xmlns="http://www.w3.org/2000/svg" xmlns:xlink="http://www.w3.org/1999/xlink" x="0px" y="0px"
	 viewBox="0 0 512 512" style="enable-background:new 0 0 512 512;" xml:space="preserve">
<rect x="139.633" y="91.519" style="fill:#808080;" width="101.232" height="69.076"/>
<g>
	<rect x="139.633" y="91.519" style="fill:#666666;" width="19.177" height="69.076"/>
	<rect x="139.633" y="91.519" style="fill:#666666;" width="101.232" height="26.177"/>
</g>
<path style="fill:#F95428;" d="M326.698,143.119l-31.953,259.278H8.959V169.973c0-14.83,12.024-26.854,26.854-26.854
	C35.813,143.119,326.698,143.119,326.698,143.119z"/>
<path style="fill:#E03F20;" d="M65.068,143.119c-14.83,0-26.854,12.024-26.854,26.854v232.423H8.959V169.973
	c0-14.83,12.024-26.854,26.854-26.854C35.813,143.119,65.068,143.119,65.068,143.119z"/>
<rect x="50.544" y="180.5" style="fill:#E6E6E6;" width="201.903" height="82.02"/>
<g>
	<polygon style="fill:#F2F2F2;" points="252.741,180.497 252.741,262.517 185.17,262.517 248.156,180.497 	"/>
	<polygon style="fill:#F2F2F2;" points="184.685,180.497 184.685,262.517 117.113,262.517 180.1,180.497 	"/>
	<polygon style="fill:#F2F2F2;" points="118.418,180.497 118.418,262.517 50.847,262.517 113.833,180.497 	"/>
</g>
<path style="fill:#2BA5F7;" d="M447.72,118.569h-29.911c-4.216,0-7.634,3.417-7.634,7.634v26.463h45.178v-26.463
	C455.354,121.986,451.937,118.569,447.72,118.569z"/>
<path style="fill:#269BDB;" d="M423.295,118.569h-5.487c-4.216,0-7.634,3.417-7.634,7.634v26.463h13.12V118.569z"/>
<path style="fill:#F95428;" d="M475.522,402.39h27.523V163.937c0-11.501-9.323-20.824-20.824-20.824H313.563
	c-10.395,0-18.822,8.426-18.822,18.822V402.39h55.416"/>
<g>
	<path style="fill:#4D4D4D;" d="M401.923,411.346H8.955c-4.946,0-8.955-4.01-8.955-8.955c0-4.946,4.01-8.955,8.955-8.955h392.968
		c4.946,0,8.955,4.01,8.955,8.955C410.879,407.336,406.869,411.346,401.923,411.346z"/>
	<path style="fill:#4D4D4D;" d="M503.045,411.346H462.82c-4.946,0-8.955-4.01-8.955-8.955c0-4.946,4.01-8.955,8.955-8.955h40.224
		c4.946,0,8.955,4.01,8.955,8.955C512,407.336,507.99,411.346,503.045,411.346z"/>
</g>
<g>
	<circle style="fill:#666666;" cx="97.029" cy="402.391" r="62.688"/>
	<circle style="fill:#666666;" cx="412.833" cy="402.391" r="62.688"/>
</g>
<g>
	<circle style="fill:#E6E6E6;" cx="412.833" cy="402.391" r="27.991"/>
	<path style="fill:#E6E6E6;" d="M125.021,402.389c0,13.397-9.433,24.61-22.03,27.344c-1.922,0.418-3.917,0.645-5.97,0.645
		c-15.451,0-27.989-12.538-27.989-27.989c0-15.463,12.538-27.989,27.989-27.989c2.054,0,4.048,0.215,5.97,0.645
		C115.588,377.78,125.021,388.98,125.021,402.389z"/>
</g>
<g>
	<path style="fill:#FFFFFF;" d="M125.021,402.389c0,13.397-9.433,24.61-22.03,27.344c-12.585-2.734-22.018-13.947-22.018-27.344
		c0-13.409,9.433-24.609,22.018-27.344C115.588,377.78,125.021,388.98,125.021,402.389z"/>
	<path style="fill:#FFFFFF;" d="M440.828,402.389c0,13.397-9.433,24.61-22.03,27.344c-12.585-2.734-22.018-13.947-22.018-27.344
		c0-13.409,9.433-24.609,22.018-27.344C431.395,377.78,440.828,388.98,440.828,402.389z"/>
</g>
<rect x="409.98" y="180.5" style="fill:#E6E6E6;" width="93.065" height="82.02"/>
<g>
	<rect x="323.411" y="180.5" style="fill:#F2F2F2;" width="55.524" height="82.02"/>
	<polygon style="fill:#F2F2F2;" points="503.048,180.497 503.048,262.517 435.476,262.517 498.463,180.497 	"/>
</g>
<rect x="464.011" y="292.383" style="fill:#F7B239;" width="22.687" height="44.18"/>
<path style="fill:#2BA5F7;" d="M488.758,58.335c-26.088-9.667-60.153-9.408-103.341,13.972c0,0,44.604,2.469,76.047,30.385
	c11.296,10.029,28.596,8.818,38.013-2.994l0.521-0.653C511.051,85.179,505.384,64.496,488.758,58.335z"/>
<polygon style="fill:#F95428;" points="353.578,47.648 254.131,55.441 254.131,100.903 353.578,108.696 "/>
<polygon style="fill:#E03F20;" points="254.125,88.096 353.578,91.499 353.578,108.694 254.125,100.897 "/>
<rect x="121.997" y="46.921" style="fill:#F95428;" width="138.188" height="62.509"/>
<rect x="121.997" y="46.921" style="fill:#E03F20;" width="23.21" height="62.509"/>
<g>
</g>
<g>
</g>
<g>
</g>
<g>
</g>
<g>
</g>
<g>
</g>
<g>
</g>
<g>
</g>
<g>
</g>
<g>
</g>
<g>
</g>
<g>
</g>
<g>
</g>
<g>
</g>
<g>
</g>
</svg>
