<?xml version="1.0" encoding="iso-8859-1"?>
<!-- Generator: Adobe Illustrator 19.0.0, SVG Export Plug-In . SVG Version: 6.00 Build 0)  -->
<svg version="1.1" id="Capa_1" xmlns="http://www.w3.org/2000/svg" xmlns:xlink="http://www.w3.org/1999/xlink" x="0px" y="0px"
	 viewBox="0 0 512.006 512.006" style="enable-background:new 0 0 512.006 512.006;" xml:space="preserve">
<path style="fill:#F42737;" d="M181.663,106.526l2.428-28.376c0.692-8.112,7.481-14.343,15.624-14.343h27.001
	c8.143,0,14.932,6.231,15.624,14.343l2.428,28.376"/>
<path style="fill:#FC6B7D;" d="M199.715,63.808c-8.143,0-14.932,6.231-15.624,14.343l-2.428,28.376h17.223l2.428-28.376
	c0.692-8.112,7.481-14.343,15.624-14.343C216.938,63.808,199.715,63.808,199.715,63.808z"/>
<path style="fill:#9AA7B8;" d="M168.167,105.497h90.097c5.303,0,9.602,4.299,9.602,9.602v33.619H158.566v-33.619
	C158.566,109.796,162.864,105.497,168.167,105.497z"/>
<path style="fill:#8896A5;" d="M168.167,105.497h24.255v43.221h-33.856v-33.619C158.566,109.796,162.864,105.497,168.167,105.497z"
	/>
<path style="fill:#E6E6E6;" d="M509.175,157.077v279.795c0,8.003-6.488,14.491-14.491,14.491H17.327
	c-8.003,0-14.491-6.488-14.491-14.491v-90.435c0-20.047,7.574-38.802,20.46-53.01c8.101-8.959,18.321-16.099,30.07-20.615
	c0.413-0.165,0.827-0.32,1.24-0.475l0.114-0.465c0.01-0.01,0.01-0.01,0.01-0.01v-0.01l31.093-124.053
	c2.604-10.395,11.945-17.691,22.661-17.691h373.719C497.1,130.107,509.175,142.182,509.175,157.077z"/>
<path style="fill:#EFEFEF;" d="M509.175,157.077v136.35H23.297c4.598-5.084,9.889-9.579,15.738-13.34
	c4.826-3.121,10.034-5.725,15.572-7.75l0.124-0.475l1.819-7.275l0.124-0.475l1.943-7.75l16.492-65.803l2.067-8.225l1.819-7.275
	l0.124-0.475l1.932-7.75l4.774-19.034c2.604-10.395,11.945-17.691,22.661-17.691h373.719
	C497.095,130.107,509.175,142.187,509.175,157.077z"/>
<path style="fill:#D6D6D4;" d="M53.367,272.812c-6.293,4.557-32.271,25.183-32.271,54.85c0,33.759,0,123.702,0,123.702h-3.769
	c-8.003,0-14.491-6.488-14.491-14.491v-90.435c0-20.047,7.574-38.802,20.46-53.01C31.398,284.468,41.618,277.328,53.367,272.812z"/>
<path style="fill:#9AA7B8;" d="M509.17,398.246H2.831v38.621c0,8.003,6.487,14.491,14.491,14.491h477.356
	c8.003,0,14.491-6.487,14.491-14.491v-38.621H509.17z"/>
<path style="fill:#8292A3;" d="M21.096,398.246H2.831v38.621c0,8.003,6.487,14.491,14.491,14.491h3.773v-53.112H21.096z"/>
<path style="fill:#0084BC;" d="M423.979,210.92l-18.505-26.354c-1.618-2.305-4.8-2.861-7.105-1.243l-19.22,13.497
	c-3.38,2.374-8.031-0.044-8.031-4.174v-23.486c0-2.817-2.284-5.101-5.101-5.101h-32.202c-2.817,0-5.101,2.284-5.101,5.101v23.486
	c0,4.129-4.651,6.547-8.031,4.174l-19.22-13.497c-2.305-1.618-5.486-1.062-7.104,1.243l-18.505,26.354
	c-1.618,2.305-1.062,5.486,1.243,7.104l29.982,21.053c2.892,2.031,2.892,6.317,0,8.347l-29.982,21.053
	c-2.305,1.618-2.861,4.8-1.243,7.105l18.505,26.354c1.618,2.305,4.8,2.861,7.104,1.243l19.22-13.496
	c3.38-2.374,8.031,0.044,8.031,4.174v23.486c0,2.817,2.284,5.101,5.101,5.101h32.202c2.817,0,5.101-2.284,5.101-5.101v-23.486
	c0-4.129,4.651-6.547,8.031-4.174l19.22,13.496c2.305,1.618,5.486,1.062,7.105-1.243l18.505-26.354
	c1.618-2.305,1.062-5.486-1.243-7.105l-29.982-21.053c-2.892-2.031-2.892-6.317,0-8.347l29.982-21.053
	C425.041,216.406,425.597,213.225,423.979,210.92z"/>
<g>
	<circle style="fill:#2C4046;" cx="102.593" cy="451.364" r="60.642"/>
	<circle style="fill:#2C4046;" cx="419.799" cy="451.364" r="60.642"/>
</g>
<g>
	<circle style="fill:#9AA7B8;" cx="102.593" cy="451.364" r="27.179"/>
	<circle style="fill:#9AA7B8;" cx="419.799" cy="451.364" r="27.179"/>
</g>
<polygon style="fill:#A0D9F2;" points="176.015,174.582 176.015,264.111 56.674,264.111 58.616,256.361 75.109,190.558 
	77.175,182.332 78.994,175.058 79.118,174.582 "/>
<g>
	<path style="fill:#1D2C30;" d="M102.59,486.287c-19.259,0-34.929-15.669-34.929-34.929s15.67-34.929,34.929-34.929
		s34.929,15.669,34.929,34.929S121.85,486.287,102.59,486.287z M102.59,431.93c-10.713,0-19.429,8.715-19.429,19.429
		s8.716,19.429,19.429,19.429s19.429-8.715,19.429-19.429S113.303,431.93,102.59,431.93z"/>
	<path style="fill:#1D2C30;" d="M419.801,486.287c-19.26,0-34.929-15.669-34.929-34.929s15.669-34.929,34.929-34.929
		s34.929,15.669,34.929,34.929S439.06,486.287,419.801,486.287z M419.801,431.93c-10.713,0-19.429,8.715-19.429,19.429
		s8.716,19.429,19.429,19.429s19.429-8.715,19.429-19.429S430.514,431.93,419.801,431.93z"/>
</g>
<g>
	<path style="fill:#9AA7B8;" d="M183.765,174.582v89.529c0,4.278-3.472,7.75-7.75,7.75H54.731l1.819-7.275l0.124-0.475l1.943-7.75
		h109.648v-74.029H77.175l1.819-7.275l0.124-0.475l1.932-7.75h94.964C180.293,166.832,183.765,170.294,183.765,174.582z"/>
	
		<rect x="96.443" y="174.154" transform="matrix(-0.9905 -0.1372 0.1372 -0.9905 177.305 450.9122)" style="fill:#9AA7B8;" width="15.499" height="90.383"/>
</g>
<circle style="fill:#F7CD1C;" cx="42.206" cy="348.133" r="17.824"/>
<path style="fill:#E0B917;" d="M36.093,348.131c0-7.789,5.006-14.394,11.969-16.82c-1.836-0.64-3.802-1.004-5.856-1.004
	c-9.844,0-17.824,7.98-17.824,17.824s7.981,17.824,17.824,17.824c2.054,0,4.02-0.365,5.856-1.004
	C41.098,362.526,36.093,355.921,36.093,348.131z"/>
<path style="fill:#F42737;" d="M213.216,38.851c-4.28,0-7.75-3.47-7.75-7.75V7.75c0-4.28,3.47-7.75,7.75-7.75s7.75,3.47,7.75,7.75
	v23.35C220.966,35.381,217.496,38.851,213.216,38.851z"/>
<path style="fill:#16A2D3;" d="M176.934,46.811c-2.932,0-5.736-1.671-7.043-4.508l-9.773-21.206
	c-1.791-3.887-0.092-8.491,3.794-10.282c3.887-1.792,8.491-0.093,10.283,3.795l9.773,21.206c1.791,3.887,0.092,8.491-3.794,10.282
	C179.123,46.582,178.019,46.811,176.934,46.811z"/>
<path style="fill:#F42737;" d="M147.081,69.482c-1.771,0-3.552-0.603-5.008-1.839l-17.811-15.099
	c-3.265-2.768-3.667-7.658-0.9-10.923c2.767-3.265,7.657-3.668,10.923-0.9l17.811,15.1c3.265,2.768,3.667,7.658,0.9,10.923
	C151.463,68.552,149.279,69.482,147.081,69.482z"/>
<path style="fill:#16A2D3;" d="M249.498,46.811c-1.085,0-2.188-0.229-3.239-0.713c-3.887-1.791-5.586-6.394-3.795-10.282
	l9.772-21.206c1.792-3.887,6.394-5.587,10.282-3.795c3.887,1.791,5.586,6.394,3.795,10.282l-9.772,21.206
	C255.234,45.14,252.429,46.811,249.498,46.811z"/>
<path style="fill:#F42737;" d="M279.351,69.482c-2.199,0-4.382-0.93-5.916-2.738c-2.768-3.264-2.365-8.155,0.899-10.923l17.811-15.1
	c3.266-2.768,8.157-2.364,10.923,0.9c2.768,3.264,2.365,8.155-0.899,10.923l-17.811,15.1
	C282.902,68.879,281.122,69.482,279.351,69.482z"/>
<g>
</g>
<g>
</g>
<g>
</g>
<g>
</g>
<g>
</g>
<g>
</g>
<g>
</g>
<g>
</g>
<g>
</g>
<g>
</g>
<g>
</g>
<g>
</g>
<g>
</g>
<g>
</g>
<g>
</g>
</svg>
